<?xml version="1.0"?>
<mxfile host="app.diagrams.net" agent="NodeGenerated" version="26.1.3">
  <diagram id="diagram-all-tables" name="Page-1">
    <mxGraphModel dx="1434" dy="785" grid="1" gridSize="10" guides="1" tooltips="1" connect="1" arrows="1" fold="1" page="1" pageScale="1" pageWidth="827" pageHeight="1169" math="0" shadow="0">
      <root>
        <mxCell id="0"/>
        <mxCell id="1" parent="0"/>
        <mxCell id="file_bases-0" value="file_bases" style="swimlane;fontStyle=2;align=center;verticalAlign=top;childLayout=stackLayout;horizontal=1;startSize=26;horizontalStack=0;resizeParent=1;resizeLast=0;collapsible=1;marginBottom=0;rounded=0;shadow=0;strokeWidth=1;" parent="1" vertex="1">
          <mxGeometry x="220" y="120" width="240" height="394" as="geometry">
            <mxRectangle x="230" y="140" width="240" height="26" as="alternateBounds"/>
          </mxGeometry>
        </mxCell>
        <mxCell id="file_bases-0-1" value="id" style="text;align=left;verticalAlign=top;spacingLeft=4;spacingRight=4;overflow=hidden;rotatable=0;points=[[0,0.5],[1,0.5]];portConstraint=eastwest;" parent="file_bases-0" vertex="1">
          <mxGeometry y="26" width="240" height="26" as="geometry"/>
        </mxCell>
        <mxCell id="file_bases-0-2" value="jf" style="text;align=left;verticalAlign=top;spacingLeft=4;spacingRight=4;overflow=hidden;rotatable=0;points=[[0,0.5],[1,0.5]];portConstraint=eastwest;" parent="file_bases-0" vertex="1">
          <mxGeometry y="52" width="240" height="26" as="geometry"/>
        </mxCell>
        <mxCell id="file_bases-0-3" value="fr" style="text;align=left;verticalAlign=top;spacingLeft=4;spacingRight=4;overflow=hidden;rotatable=0;points=[[0,0.5],[1,0.5]];portConstraint=eastwest;" parent="file_bases-0" vertex="1">
          <mxGeometry y="78" width="240" height="26" as="geometry"/>
        </mxCell>
        <mxCell id="file_bases-0-4" value="fr" style="text;align=left;verticalAlign=top;spacingLeft=4;spacingRight=4;overflow=hidden;rotatable=0;points=[[0,0.5],[1,0.5]];portConstraint=eastwest;" parent="file_bases-0" vertex="1">
          <mxGeometry y="104" width="240" height="26" as="geometry"/>
        </mxCell>
        <mxCell id="file_bases-0-5" value="rr" style="text;align=left;verticalAlign=top;spacingLeft=4;spacingRight=4;overflow=hidden;rotatable=0;points=[[0,0.5],[1,0.5]];portConstraint=eastwest;" parent="file_bases-0" vertex="1">
          <mxGeometry y="130" width="240" height="26" as="geometry"/>
        </mxCell>
        <mxCell id="file_bases-0-6" value="gv" style="text;align=left;verticalAlign=top;spacingLeft=4;spacingRight=4;overflow=hidden;rotatable=0;points=[[0,0.5],[1,0.5]];portConstraint=eastwest;" parent="file_bases-0" vertex="1">
          <mxGeometry y="156" width="240" height="26" as="geometry"/>
        </mxCell>
        <mxCell id="file_bases-0-7" value="c" style="text;align=left;verticalAlign=top;spacingLeft=4;spacingRight=4;overflow=hidden;rotatable=0;points=[[0,0.5],[1,0.5]];portConstraint=eastwest;" parent="file_bases-0" vertex="1">
          <mxGeometry y="182" width="240" height="26" as="geometry"/>
        </mxCell>
        <mxCell id="file_bases-0-8" value="cs" style="text;align=left;verticalAlign=top;spacingLeft=4;spacingRight=4;overflow=hidden;rotatable=0;points=[[0,0.5],[1,0.5]];portConstraint=eastwest;" parent="file_bases-0" vertex="1">
          <mxGeometry y="208" width="240" height="26" as="geometry"/>
        </mxCell>
        <mxCell id="file_bases-0-9" value="cs" style="text;align=left;verticalAlign=top;spacingLeft=4;spacingRight=4;overflow=hidden;rotatable=0;points=[[0,0.5],[1,0.5]];portConstraint=eastwest;" parent="file_bases-0" vertex="1">
          <mxGeometry y="234" width="240" height="26" as="geometry"/>
        </mxCell>
        <mxCell id="file_bases-0-10" value="cs" style="text;align=left;verticalAlign=top;spacingLeft=4;spacingRight=4;overflow=hidden;rotatable=0;points=[[0,0.5],[1,0.5]];portConstraint=eastwest;" parent="file_bases-0" vertex="1">
          <mxGeometry y="260" width="240" height="26" as="geometry"/>
        </mxCell>
        <mxCell id="file_bases-0-11" value="xs" style="text;align=left;verticalAlign=top;spacingLeft=4;spacingRight=4;overflow=hidden;rotatable=0;points=[[0,0.5],[1,0.5]];portConstraint=eastwest;" parent="file_bases-0" vertex="1">
          <mxGeometry y="286" width="240" height="26" as="geometry"/>
        </mxCell>
        <mxCell id="file_bases-0-12" value="created_at" style="text;align=left;verticalAlign=top;spacingLeft=4;spacingRight=4;overflow=hidden;rotatable=0;points=[[0,0.5],[1,0.5]];portConstraint=eastwest;" parent="file_bases-0" vertex="1">
          <mxGeometry y="312" width="240" height="26" as="geometry"/>
        </mxCell>
        <mxCell id="file_bases-0-13" value="updated_at" style="text;align=left;verticalAlign=top;spacingLeft=4;spacingRight=4;overflow=hidden;rotatable=0;points=[[0,0.5],[1,0.5]];portConstraint=eastwest;" parent="file_bases-0" vertex="1">
          <mxGeometry y="338" width="240" height="26" as="geometry"/>
        </mxCell>
        <mxCell id="file_bases-0-14" value="deleted_at" style="text;align=left;verticalAlign=top;spacingLeft=4;spacingRight=4;overflow=hidden;rotatable=0;points=[[0,0.5],[1,0.5]];portConstraint=eastwest;" parent="file_bases-0" vertex="1">
          <mxGeometry y="364" width="240" height="26" as="geometry"/>
        </mxCell>
        <mxCell id="ty_only-0" value="ty_only" style="swimlane;fontStyle=2;align=center;verticalAlign=top;childLayout=stackLayout;horizontal=1;startSize=26;horizontalStack=0;resizeParent=1;resizeLast=0;collapsible=1;marginBottom=0;rounded=0;shadow=0;strokeWidth=1;" parent="1" vertex="1">
          <mxGeometry x="220" y="544" width="240" height="160" as="geometry">
            <mxRectangle x="230" y="564" width="240" height="26" as="alternateBounds"/>
          </mxGeometry>
        </mxCell>
        <mxCell id="ty_only-0-1" value="id" style="text;align=left;verticalAlign=top;spacingLeft=4;spacingRight=4;overflow=hidden;rotatable=0;points=[[0,0.5],[1,0.5]];portConstraint=eastwest;" parent="ty_only-0" vertex="1">
          <mxGeometry y="26" width="240" height="26" as="geometry"/>
        </mxCell>
        <mxCell id="ty_only-0-2" value="efde" style="text;align=left;verticalAlign=top;spacingLeft=4;spacingRight=4;overflow=hidden;rotatable=0;points=[[0,0.5],[1,0.5]];portConstraint=eastwest;" parent="ty_only-0" vertex="1">
          <mxGeometry y="52" width="240" height="26" as="geometry"/>
        </mxCell>
        <mxCell id="ty_only-0-3" value="created_at" style="text;align=left;verticalAlign=top;spacingLeft=4;spacingRight=4;overflow=hidden;rotatable=0;points=[[0,0.5],[1,0.5]];portConstraint=eastwest;" parent="ty_only-0" vertex="1">
          <mxGeometry y="78" width="240" height="26" as="geometry"/>
        </mxCell>
        <mxCell id="ty_only-0-4" value="updated_at" style="text;align=left;verticalAlign=top;spacingLeft=4;spacingRight=4;overflow=hidden;rotatable=0;points=[[0,0.5],[1,0.5]];portConstraint=eastwest;" parent="ty_only-0" vertex="1">
          <mxGeometry y="104" width="240" height="26" as="geometry"/>
        </mxCell>
        <mxCell id="ty_only-0-5" value="deleted_at" style="text;align=left;verticalAlign=top;spacingLeft=4;spacingRight=4;overflow=hidden;rotatable=0;points=[[0,0.5],[1,0.5]];portConstraint=eastwest;" parent="ty_only-0" vertex="1">
          <mxGeometry y="130" width="240" height="26" as="geometry"/>
        </mxCell>
      </root>
    </mxGraphModel>
  </diagram>
</mxfile>